FILE "Jeopardy! (1994)(Sony)(US).img" BINARY
  TRACK 01 MODE1/2352
    INDEX 01 00:00:00
  TRACK 02 AUDIO
    PREGAP 00:02:00
    INDEX 01 09:01:46
  TRACK 03 AUDIO
    INDEX 00 10:07:10
    INDEX 01 10:09:10
